<svg width="647" height="548" viewBox="0 0 647 548" fill="none" xmlns="http://www.w3.org/2000/svg">
<rect x="14.5" y="14.5" width="618" height="425" rx="85.5" stroke="#1E88E5" stroke-width="29"/>
<path d="M75 311C75 267.922 109.922 233 153 233H254C297.078 233 332 267.922 332 311V446H75V311Z" fill="#1E88E5"/>
<circle cx="203.5" cy="146.5" r="71.5" fill="#1E88E5"/>
<path d="M558.1 302.6C558.3 303.8 558.4 305 558.4 306.2C558.6 307.2 558.7 308.4 558.7 309.8C558.7 312.2 558 314.4 556.6 316.4C556 317.4 555.2 318.4 554.2 319.4C553.2 320.2 552 320.9 550.6 321.5C545.6 324.3 540.3 325.3 534.7 324.5C531.9 323.7 529.4 322.4 527.2 320.6C526.8 320.2 526.5 320 526.3 320C526.1 319.8 525.9 319.5 525.7 319.1C525.5 318.9 525.3 318.7 525.1 318.5C524.9 318.1 524.6 317.8 524.2 317.6C523.2 316.6 522.4 315.7 521.8 314.9C521.2 313.9 520.6 312.9 520 311.9C519.6 310.9 519.1 310 518.5 309.2C518.1 308.2 517.6 307.2 517 306.2C516.6 305.4 516.2 304.7 515.8 304.1C515.4 303.3 515.1 302.5 514.9 301.7C514.1 299.9 513.6 298.3 513.4 296.9L507.1 282.2C493.3 282.2 479.5 282.3 465.7 282.5C452.1 282.5 438.4 282.4 424.6 282.2L418.3 296.9C417.9 297.7 417.6 298.5 417.4 299.3C417.4 300.1 417.2 300.9 416.8 301.7C416.4 302.5 416 303.3 415.6 304.1C415.4 304.7 415.1 305.4 414.7 306.2C414.1 307.2 413.5 308.2 412.9 309.2C412.5 310 412 310.9 411.4 311.9C411 312.9 410.5 313.9 409.9 314.9C409.3 315.7 408.5 316.6 407.5 317.6C407.1 317.8 406.8 318.1 406.6 318.5C406.4 318.7 406.2 318.9 406 319.1C405.8 319.5 405.6 319.8 405.4 320C405.2 320 404.9 320.2 404.5 320.6C402.3 322.4 399.8 323.7 397 324.5C391.4 325.3 386.1 324.3 381.1 321.5C379.7 320.9 378.5 320.2 377.5 319.4C376.5 318.4 375.7 317.4 375.1 316.4C373.7 314.4 373 312.2 373 309.8C373 308.4 373 307.2 373 306.2C373.2 305 373.4 303.8 373.6 302.6C374 300.8 374.5 299 375.1 297.2C375.7 295.4 376 294.5 376 294.5L438.4 140.9L440.2 136.1C440.6 134.9 441.1 133.8 441.7 132.8C442.3 131.8 442.8 130.6 443.2 129.2C444.2 126.6 445.3 124.3 446.5 122.3C447.1 121.1 447.8 120 448.6 119C449.4 118 450.2 117 451 116C452.2 114.4 453.9 113.1 456.1 112.1C458.9 111.1 462.1 110.6 465.7 110.6C469.5 110.6 472.8 111.1 475.6 112.1C477.8 113.1 479.5 114.4 480.7 116C482.1 117.8 483.6 119.9 485.2 122.3C486.4 124.3 487.5 126.6 488.5 129.2C488.9 130.6 489.4 131.8 490 132.8C490.6 133.8 491.1 134.9 491.5 136.1L493.3 140.9L555.7 294.5C555.7 294.5 556 295.4 556.6 297.2C557.2 299 557.7 300.8 558.1 302.6ZM487 229.1C484.4 223.3 481.7 217.3 478.9 211.1C476.3 204.9 473.5 198.6 470.5 192.2C469.7 190.4 468.9 188.6 468.1 186.8C467.3 184.8 466.5 182.9 465.7 181.1C465.1 182.9 464.4 184.8 463.6 186.8C462.8 188.6 462 190.4 461.2 192.2C458.2 198.6 455.3 204.9 452.5 211.1C449.9 217.3 447.3 223.3 444.7 229.1L439.3 242.3H492.4L487 229.1Z" fill="#1E88E5"/>
<path d="M236.584 431C245.388 431 249.896 441.555 243.808 447.915L165.224 530.007C158.99 536.519 148 532.107 148 523.092V441C148 435.477 152.477 431 158 431H236.584Z" fill="#1E88E5"/>
</svg>
